<?xml version="1.0" encoding="utf-8"?>
<!-- Generator: Adobe Illustrator 15.0.1, SVG Export Plug-In . SVG Version: 6.00 Build 0)  -->
<!DOCTYPE svg PUBLIC "-//W3C//DTD SVG 1.1//EN" "http://www.w3.org/Graphics/SVG/1.1/DTD/svg11.dtd">
<svg version="1.1" xmlns="http://www.w3.org/2000/svg" xmlns:xlink="http://www.w3.org/1999/xlink" x="0px" y="0px" width="425px"
	 height="150px" viewBox="0 0 425 150" enable-background="new 0 0 425 150" xml:space="preserve">
<path d="M176.803,87.343v12.311c0,2.523-0.696,4.35-2.088,5.481c-1.392,1.087-2.915,1.479-6.09,1.479
	c-2.915,0-4.437-0.305-5.829-1.174c-1.697-1.131-2.523-3.002-2.523-5.786v-18.14c0-2.697,0.783-4.567,2.436-5.655
	c1.392-0.957,2.915-1.262,5.916-1.262c3.175,0,4.698,0.392,6.09,1.479c1.392,1.131,2.088,2.958,2.088,5.438v2.306h-6.395v-1.174
	c0-1.784-0.609-2.697-1.871-2.697c-1.261,0-1.87,0.914-1.87,2.697v15.921c0,1.74,0.609,2.653,1.87,2.653
	c1.262,0,1.871-0.87,1.871-2.653v-5.873h-1.827v-5.351H176.803z M180.413,81.514c0-2.697,0.783-4.567,2.436-5.655
	c1.392-0.914,2.915-1.262,5.873-1.262c3.219,0,4.742,0.348,6.133,1.479c1.393,1.131,2.088,2.958,2.088,5.438v18.183
	c0,2.479-0.695,4.307-2.088,5.438c-1.392,1.087-2.914,1.479-6.09,1.479c-2.915,0-4.437-0.305-5.829-1.174
	c-1.696-1.131-2.523-3.002-2.523-5.742V81.514z M190.549,82.646c0-1.784-0.609-2.697-1.871-2.697s-1.871,0.914-1.871,2.697v15.921
	c0,1.783,0.609,2.697,1.871,2.697s1.871-0.914,1.871-2.697V82.646z M214.212,80.427h-6.786v6.917h6.481v5.351h-6.481v8.091h6.786
	v5.351h-13.181V75.076h13.181V80.427z M231.917,75.076v5.351h-4.697v25.708h-6.395V80.427h-4.742v-5.351H231.917z M244.966,75.076
	h6.395v31.059h-6.395V92.694h-3.741v13.441h-6.395V75.076h6.395v12.267h3.741V75.076z M269.065,80.427h-6.785v6.917h6.481v5.351
	h-6.481v8.091h6.785v5.351h-13.18V75.076h13.18V80.427z M280.202,95.826h-8.266v-5.133h8.266V95.826z M290.467,106.135h-6.395
	V75.076h6.395V106.135z M314.435,106.135h-7.569l-5.089-17.096c-0.044-0.087-0.262-0.913-0.436-1.74
	c-0.087-0.435-0.392-1.784-0.87-4.002c0.392,4.307,0.392,4.437,0.392,5.394v17.443h-5.785V75.076h7.612l4.828,15.355
	c0.305,1.044,0.566,1.914,0.696,2.654c0.174,0.696,0.349,1.392,0.479,2.088c0.131,0.522,0.392,1.653,0.696,2.915
	c-0.565-3.523-0.739-4.916-0.739-6.438V75.076h5.785V106.135z M328.137,84.168c-0.043-2.262-0.131-2.871-0.521-3.437
	c-0.349-0.522-0.87-0.783-1.479-0.783c-1.088,0-1.74,0.87-1.74,2.393c0,2.088,0.696,3.132,3.959,5.698
	c4.828,3.915,6.09,6.09,6.09,10.527c0,2.958-0.565,4.785-1.827,6.177c-1.305,1.392-2.827,1.871-5.959,1.871
	c-6.873,0-8.831-1.784-8.831-8.047c0-0.305,0-1.131,0.044-1.914h6.351v1.174c0,1.479,0.044,2.001,0.305,2.523
	c0.261,0.565,0.87,0.914,1.522,0.914c1.262,0,1.87-0.87,1.87-2.653c0-2.132-0.608-3.176-2.783-4.916
	c-3.523-2.828-4.48-3.654-5.438-5.002c-1.219-1.566-1.827-3.654-1.827-6.09c0-2.61,0.695-4.785,1.914-6.09
	c1.174-1.305,3.132-1.914,6.177-1.914c6.047,0,8.265,2.044,8.265,7.569c0,0.522,0,1.174-0.043,2.001H328.137z M351.803,75.076v5.351
	h-4.697v25.708h-6.395V80.427h-4.742v-5.351H351.803z M361.112,106.135h-6.395V75.076h6.395V106.135z M379.817,75.076v5.351h-4.698
	v25.708h-6.395V80.427h-4.741v-5.351H379.817z M398.957,98.523c0,5.785-2.349,8.091-8.309,8.091c-2.262,0-3.915-0.348-5.264-1.131
	c-2.175-1.218-2.958-3.089-2.958-6.96V75.076h6.395v23.447c0,1.827,0.609,2.74,1.871,2.74c1.218,0,1.87-0.914,1.87-2.74V75.076
	h6.395V98.523z M417.356,75.076v5.351h-4.697v25.708h-6.395V80.427h-4.742v-5.351H417.356z"/>
<g>
	<path fill="#76B82A" d="M100.358,31.43c0,10.735,8.703,19.438,19.44,19.438c10.733,0,19.436-8.703,19.436-19.438
		c0-10.737-8.703-19.44-19.436-19.44C109.062,11.989,100.358,20.693,100.358,31.43L100.358,31.43z M94.784,31.428
		c0-13.813,11.199-25.011,25.015-25.011c13.814,0,25.012,11.198,25.012,25.011c0,13.816-11.198,25.013-25.012,25.013
		C105.983,56.441,94.784,45.244,94.784,31.428L94.784,31.428z"/>
	<path fill="#76B82A" d="M100.823,75.003l-5.423-0.001c0,10.572-8.606,19.141-19.177,19.141c-10.571,0-19.139-8.568-19.139-19.141
		c0-10.57,8.568-19.139,19.139-19.139l0.004-5.465c-13.604,0-24.63,11.002-24.63,24.603c0,13.603,11.026,24.627,24.628,24.627
		C89.826,99.629,100.823,88.606,100.823,75.003L100.823,75.003z"/>
	<path fill="#76B82A" d="M106.352,75.003l5.445-0.002c0,19.626-15.948,35.535-35.573,35.535c-19.624,0-35.532-15.909-35.532-35.535
		c0-19.625,15.909-35.534,35.532-35.534l0.002,5.462c-16.61,0-30.077,13.46-30.077,30.071c0,16.612,13.464,30.076,30.075,30.076
		C92.834,105.077,106.352,91.615,106.352,75.003L106.352,75.003z"/>
	<path fill="#76B82A" d="M122.733,75.003l-5.481-0.001c0,22.641-18.39,40.992-41.027,40.992c-22.641,0-40.992-18.351-40.992-40.992
		c0-22.638,18.351-40.99,40.992-40.99l0.002-5.521c-25.716,0-46.563,20.793-46.563,46.51c0,25.717,20.848,46.563,46.562,46.563
		C101.94,121.564,122.733,100.72,122.733,75.003L122.733,75.003z"/>
	<path fill="#76B82A" d="M133.794,75.003l-5.477-0.002c0,28.747-23.343,52.052-52.091,52.052c-28.749,0-52.053-23.305-52.053-52.052
		c0-28.749,23.304-52.054,52.053-52.054v-5.553c-31.814,0-57.606,25.79-57.606,57.605c0,31.817,25.792,57.606,57.606,57.606
		C108.04,132.606,133.794,106.82,133.794,75.003L133.794,75.003z"/>
	<path fill="#76B82A" d="M144.811,75.003L139.383,75c0,34.859-28.294,63.119-63.155,63.119c-34.86,0-63.121-28.259-63.121-63.119
		c0-34.86,28.26-63.118,63.121-63.118l-0.001-5.465C38.348,6.417,7.644,37.122,7.644,75c0,37.878,30.707,68.584,68.584,68.584
		C114.106,143.583,144.811,112.881,144.811,75.003L144.811,75.003z"/>
</g>
</svg>
