<?xml version="1.0" encoding="utf-8"?>
<!-- Generator: Adobe Illustrator 19.2.1, SVG Export Plug-In . SVG Version: 6.00 Build 0)  -->
<svg version="1.1" id="Layer_1" xmlns="http://www.w3.org/2000/svg" xmlns:xlink="http://www.w3.org/1999/xlink" x="0px" y="0px"
	 viewBox="0 0 259.6 310.4" style="enable-background:new 0 0 259.6 310.4;" xml:space="preserve">
<style type="text/css">
	.st0{fill:#FFFFFF;}
</style>
<g>
	<path class="st0" d="M253.5,68L0,0l6.1,236.1l0,1l251.6,72.8l1.8,0.5L253.5,68z M87.9,26.4l118.8,31.9L91,146.4L87.9,26.4z
		 M2.8,3.6l82.3,22.1l6,233.1L8.9,235L2.8,3.6z M91.2,153.3l116.6,139.2L93.9,259.6L91.2,153.3z M212.5,293.9l-121-144.4L210,59.2
		l40.8,10.9l6,236.5L212.5,293.9z"/>
	<path class="st0" d="M19.8,81.8c-0.6-0.3-1.2-0.6-1.9-0.8c-0.7-0.2-1.3-0.4-1.9-0.6c-0.6-0.2-1.1-0.5-1.5-0.9
		c-0.4-0.4-0.6-0.9-0.6-1.6c0-0.2,0-0.5,0.1-0.8c0.1-0.3,0.3-0.6,0.5-0.8c0.2-0.3,0.6-0.5,1-0.6c0.4-0.2,0.9-0.2,1.5-0.2
		c0.6,0,1.2,0.1,1.7,0.4c0.5,0.3,0.9,0.6,1.2,1l1.8-1.6c-0.6-0.8-1.3-1.3-2.1-1.5c-0.8-0.2-1.7-0.4-2.6-0.4c-1,0-1.8,0.1-2.5,0.4
		c-0.7,0.3-1.3,0.7-1.7,1.1c-0.4,0.4-0.8,0.9-1,1.5c-0.2,0.5-0.3,1-0.3,1.5c0,1.1,0.2,1.9,0.6,2.5c0.4,0.6,0.9,1.1,1.5,1.5
		c0.6,0.4,1.2,0.7,1.9,0.9c0.7,0.2,1.3,0.4,1.9,0.6c0.6,0.2,1.1,0.5,1.5,0.8c0.4,0.3,0.6,0.8,0.6,1.4c0,0.4-0.1,0.8-0.3,1.2
		c-0.2,0.3-0.5,0.6-0.8,0.9c-0.3,0.2-0.7,0.4-1,0.5c-0.4,0.1-0.8,0.2-1.1,0.2c-0.7,0-1.3-0.1-1.9-0.4c-0.6-0.3-1.1-0.7-1.5-1.3
		l-1.8,1.6c0.6,0.8,1.3,1.3,2.2,1.7c0.9,0.4,1.9,0.6,3,0.6c0.8,0,1.5-0.1,2.2-0.3c0.7-0.2,1.3-0.6,1.8-1c0.5-0.4,0.9-1,1.2-1.6
		c0.3-0.6,0.4-1.3,0.4-2.1c0-1-0.2-1.8-0.6-2.3C20.9,82.6,20.4,82.2,19.8,81.8z"/>
	<path class="st0" d="M34.9,73.8l-7.2,16.3h2.6l1.6-4h7.8l1.6,4h2.6l-7-16.3H34.9z M32.7,84.2l3.1-7.5h0l3,7.5H32.7z"/>
	<polygon class="st0" points="52.8,73.8 50.6,73.8 50.6,90.1 60.3,90.1 60.3,88.1 52.8,88.1 	"/>
	<path class="st0" d="M74.3,73.8h-2l-7.2,16.3h2.6l1.6-4h7.8l1.6,4h2.6L74.3,73.8z M70.1,84.2l3.1-7.5h0l3,7.5H70.1z"/>
</g>
</svg>
