<?xml version="1.0" encoding="utf-8"?>
<!-- Generator: Adobe Illustrator 19.2.1, SVG Export Plug-In . SVG Version: 6.00 Build 0)  -->
<svg version="1.1" id="Layer_1" xmlns="http://www.w3.org/2000/svg" xmlns:xlink="http://www.w3.org/1999/xlink" x="0px" y="0px"
	 viewBox="0 0 462.4 367.9" style="enable-background:new 0 0 462.4 367.9;" xml:space="preserve">
<style type="text/css">
	.st0{fill-rule:evenodd;clip-rule:evenodd;fill:#00AEEF;}
	.st1{fill:#FFFFFF;}
	.st2{fill:#00AEEF;}
</style>
<g>
	<path class="st0" d="M428.1,367.9c-3.9,0-8-0.6-12.1-1.7l-229.2-64.2c-23.7-6.7-43-30.6-43.8-54.5l-7.1-210.7
		c-0.4-10.6,3-20.1,9.5-26.8c8.8-9.1,22.7-12.3,36.8-8.3l229.2,64.2c23.7,6.6,43,30.6,43.8,54.5l7.1,210.7c0.4,10.6-3,20.1-9.5,26.8
		C446.6,364.3,437.8,367.9,428.1,367.9z"/>
	<path class="st1" d="M272.9,155.9c-0.6,0-1.1-0.1-1.7-0.2c-3.3-0.9-5.2-4.4-4.3-7.7l3.2-11.3c0.9-3.3,4.4-5.2,7.7-4.3
		c3.3,0.9,5.2,4.4,4.3,7.7l-3.2,11.3C278.1,154.1,275.6,155.9,272.9,155.9z"/>
	<path class="st1" d="M403.9,155.9c-0.6,0-1.1-0.1-1.7-0.2c-3.3-0.9-5.2-4.4-4.3-7.7l3.2-11.3c0.9-3.3,4.4-5.2,7.7-4.3
		c3.3,0.9,5.2,4.4,4.3,7.7l-3.2,11.3C409.1,154.1,406.6,155.9,403.9,155.9z"/>
	<path class="st1" d="M383.8,235.6c-9.1,0-17.1-3.5-22.6-10c-6-7.1-8.2-17.1-6.1-27.4c4.5-21.8,22-37.1,42.6-37.1
		c8.7-0.3,16.5,2.8,21.7,8.9c5.9,7,7.9,17.1,5.6,28.5c-0.1,0.3-0.2,0.7-1.3,4.3l-1.4,4.3l-38.4,0c-3.4,0-6.2-2.8-6.2-6.2
		c0-3.4,2.8-6.2,6.2-6.2l29.2,0c1.2-6.8,0.1-12.9-3.2-16.7c-2.7-3.2-6.7-4.7-12-4.5c-17.3,0-28,14.1-30.7,27.2
		c-1.4,6.7-0.2,12.7,3.4,16.9c3.2,3.8,8.2,5.8,14,5.6c5.2-0.2,10.6-2.1,15.5-5.4c2.8-1.9,6.7-1.2,8.6,1.7c1.9,2.8,1.2,6.7-1.7,8.6
		c-6.9,4.6-14.5,7.2-22,7.5C384.8,235.6,384.3,235.6,383.8,235.6z"/>
	<path class="st2" d="M40,356.4c-1.2,0-2.4-0.2-3.6-0.5l-24.9-7c-6-1.7-10.6-7.4-10.8-13.6L0,312.4c-0.1-3.9,1.5-7.5,4.5-9.9
		l1.2-0.8l32.8-19l1-0.3c2.3-0.7,4.8-0.7,7.2-0.1l24.9,7c6,1.7,10.6,7.4,10.8,13.6l0.8,22.9c0.1,3.9-1.5,7.6-4.4,9.9l-1.2,0.8
		l-31.5,18.2C44.1,355.9,42.1,356.4,40,356.4z"/>
	<path class="st2" d="M78.8,294.5c-0.7,0-1.4-0.2-2-0.8c-1.3-1.1-1.4-3.1-0.3-4.4l8.1-9.4c1.1-1.3,3.1-1.4,4.4-0.3
		c1.3,1.1,1.4,3.1,0.3,4.4l-8.1,9.4C80.5,294.2,79.6,294.5,78.8,294.5z"/>
	<path class="st2" d="M95.9,274.8c-0.7,0-1.4-0.3-2-0.8c-1.3-1.1-1.4-3.1-0.3-4.4l18-20.8c1.1-1.3,3.1-1.4,4.4-0.3
		c1.3,1.1,1.4,3.1,0.3,4.4l-18,20.8C97.6,274.4,96.8,274.8,95.9,274.8z"/>
	<path class="st2" d="M87.3,297.8c-1.1,0-2.1-0.5-2.7-1.5c-0.9-1.5-0.4-3.4,1.1-4.2l21.4-12.6c1.5-0.9,3.4-0.4,4.2,1.1
		c0.9,1.5,0.4,3.4-1.1,4.2l-21.4,12.6C88.3,297.7,87.8,297.8,87.3,297.8z"/>
	<path class="st2" d="M119.3,279c-1.1,0-2.1-0.5-2.7-1.5c-0.9-1.5-0.4-3.4,1.1-4.2l21.4-12.6c1.5-0.9,3.4-0.4,4.2,1.1
		c0.9,1.5,0.4,3.4-1.1,4.2l-21.4,12.6C120.4,278.8,119.8,279,119.3,279z"/>
	<path class="st2" d="M81.3,306.5c-1.4,0-2.6-0.9-3-2.3c-0.5-1.6,0.5-3.4,2.2-3.8l23.9-6.6c1.7-0.5,3.4,0.5,3.8,2.2
		c0.5,1.6-0.5,3.4-2.2,3.8l-23.9,6.6C81.8,306.4,81.6,306.5,81.3,306.5z"/>
	<path class="st2" d="M117.1,296.5c-1.4,0-2.6-0.9-3-2.3c-0.5-1.6,0.5-3.4,2.2-3.8l23.9-6.6c1.7-0.5,3.4,0.5,3.8,2.2
		c0.5,1.7-0.5,3.4-2.2,3.8l-23.9,6.6C117.7,296.5,117.4,296.5,117.1,296.5z"/>
	<path class="st2" d="M88.7,313c-1.6,0-3-1.3-3.1-2.9c-0.1-1.7,1.2-3.2,2.9-3.3l24.7-1.5c1.7-0.1,3.2,1.2,3.3,2.9
		c0.1,1.7-1.2,3.2-2.9,3.3L88.9,313C88.8,313,88.8,313,88.7,313z"/>
	<path class="st2" d="M125.8,310.8c-1.6,0-3-1.3-3.1-2.9c-0.1-1.7,1.2-3.2,2.9-3.3l24.7-1.5c1.7-0.1,3.2,1.2,3.3,2.9
		c0.1,1.7-1.2,3.2-2.9,3.3l-24.7,1.5C125.9,310.8,125.9,310.8,125.8,310.8z"/>
	<path class="st1" d="M178.3,233.2c-0.6,0-1.1-0.1-1.7-0.2c-3.3-0.9-5.2-4.4-4.3-7.7l23-80.8l-8.7,0.1c-3.4,0.1-6.2-2.7-6.3-6.1
		c0-3.4,2.7-6.2,6.1-6.3l25.3-0.3l-17,59.6c18.4-2.8,25.3-12.7,32.5-23.1l1.1-1.6c2-2.8,5.8-3.5,8.6-1.5c2.8,2,3.5,5.8,1.5,8.6
		l-1.1,1.6c-6.5,9.3-14.2,20.4-30.5,25.8c3.9,4.5,6.5,10.1,8.9,15.1c5.3,11.2,10,21.1,25,22.7l20.3-70.5c0.9-3.3,4.4-5.2,7.7-4.2
		c3.3,0.9,5.2,4.4,4.2,7.7l-22.9,79.7l-4.7,0c-26.5,0-34.8-17.3-40.8-30c-4.5-9.4-7.4-15-13.8-16.6l-6.7,23.7
		C183.5,231.4,181,233.2,178.3,233.2z"/>
	<path class="st1" d="M281.1,233.2c-0.6,0-1.1-0.1-1.7-0.2c-3.3-0.9-5.2-4.3-4.3-7.6l14.4-51.6l-0.8,0c-3.4,0-6.2-2.8-6.1-6.3
		c0-3.4,2.9-6.2,6.3-6.1l16.9,0.2l-1.4,5.1c7.4-3.7,15.6-5.4,22.4-4.8c8.9,0.8,16,4.9,19.8,11.6c3.5,6.1,6,17.2-2.4,35.3
		c-4,8.7-3,12.2-2.5,13.1c0.6,1.2,1.6,1.5,1.9,1.5c3.4,0.5,5.6,3.7,5,7.1c-0.5,3-3.2,5.2-6.2,5.2c-0.3,0-0.7,0-1-0.1
		c-0.7-0.1-7.1-1.3-10.6-7.8c-3.2-6.1-2.5-14.2,2.2-24.2c4.8-10.3,5.8-18.8,2.9-23.9c-2.3-4-6.8-5.2-10.2-5.5
		c-9.1-0.8-22.2,4.6-27.3,14.1L287,228.7C286.3,231.4,283.8,233.2,281.1,233.2z"/>
</g>
</svg>
