<?xml version="1.0" encoding="utf-8"?>
<!-- Generator: Adobe Illustrator 19.2.1, SVG Export Plug-In . SVG Version: 6.00 Build 0)  -->
<svg version="1.1" id="Layer_1" xmlns="http://www.w3.org/2000/svg" xmlns:xlink="http://www.w3.org/1999/xlink" x="0px" y="0px"
	 viewBox="0 0 425 150" style="enable-background:new 0 0 425 150;" xml:space="preserve">
<style type="text/css">
	.st0{fill:#FFFFFF;}
</style>
<path class="st0" d="M176.8,87.3v12.3c0,2.5-0.7,4.3-2.1,5.5c-1.4,1.1-2.9,1.5-6.1,1.5c-2.9,0-4.4-0.3-5.8-1.2
	c-1.7-1.1-2.5-3-2.5-5.8V81.5c0-2.7,0.8-4.6,2.4-5.7c1.4-1,2.9-1.3,5.9-1.3c3.2,0,4.7,0.4,6.1,1.5c1.4,1.1,2.1,3,2.1,5.4v2.3h-6.4
	v-1.2c0-1.8-0.6-2.7-1.9-2.7c-1.3,0-1.9,0.9-1.9,2.7v15.9c0,1.7,0.6,2.7,1.9,2.7c1.3,0,1.9-0.9,1.9-2.7v-5.9h-1.8v-5.4L176.8,87.3
	L176.8,87.3z M180.4,81.5c0-2.7,0.8-4.6,2.4-5.7c1.4-0.9,2.9-1.3,5.9-1.3c3.2,0,4.7,0.3,6.1,1.5c1.4,1.1,2.1,3,2.1,5.4v18.2
	c0,2.5-0.7,4.3-2.1,5.4c-1.4,1.1-2.9,1.5-6.1,1.5c-2.9,0-4.4-0.3-5.8-1.2c-1.7-1.1-2.5-3-2.5-5.7L180.4,81.5L180.4,81.5z
	 M190.5,82.6c0-1.8-0.6-2.7-1.9-2.7s-1.9,0.9-1.9,2.7v15.9c0,1.8,0.6,2.7,1.9,2.7s1.9-0.9,1.9-2.7V82.6z M214.2,80.4h-6.8v6.9h6.5
	v5.4h-6.5v8.1h6.8v5.4H201V75.1h13.2V80.4z M231.9,75.1v5.4h-4.7v25.7h-6.4V80.4h-4.7v-5.4C216.1,75.1,231.9,75.1,231.9,75.1z
	 M245,75.1h6.4v31.1H245V92.7h-3.7v13.4h-6.4V75.1h6.4v12.3h3.7V75.1z M269.1,80.4h-6.8v6.9h6.5v5.4h-6.5v8.1h6.8v5.4h-13.2V75.1
	h13.2V80.4z M280.2,95.8h-8.3v-5.1h8.3V95.8z M290.5,106.1h-6.4V75.1h6.4V106.1z M314.4,106.1h-7.6L301.8,89c0-0.1-0.3-0.9-0.4-1.7
	c-0.1-0.4-0.4-1.8-0.9-4c0.4,4.3,0.4,4.4,0.4,5.4v17.4h-5.8V75.1h7.6l4.8,15.4c0.3,1,0.6,1.9,0.7,2.7c0.2,0.7,0.3,1.4,0.5,2.1
	c0.1,0.5,0.4,1.7,0.7,2.9c-0.6-3.5-0.7-4.9-0.7-6.4V75.1h5.8L314.4,106.1L314.4,106.1z M328.1,84.2c0-2.3-0.1-2.9-0.5-3.4
	c-0.3-0.5-0.9-0.8-1.5-0.8c-1.1,0-1.7,0.9-1.7,2.4c0,2.1,0.7,3.1,4,5.7c4.8,3.9,6.1,6.1,6.1,10.5c0,3-0.6,4.8-1.8,6.2
	c-1.3,1.4-2.8,1.9-6,1.9c-6.9,0-8.8-1.8-8.8-8c0-0.3,0-1.1,0-1.9h6.4v1.2c0,1.5,0,2,0.3,2.5c0.3,0.6,0.9,0.9,1.5,0.9
	c1.3,0,1.9-0.9,1.9-2.7c0-2.1-0.6-3.2-2.8-4.9c-3.5-2.8-4.5-3.7-5.4-5c-1.2-1.6-1.8-3.7-1.8-6.1c0-2.6,0.7-4.8,1.9-6.1
	c1.2-1.3,3.1-1.9,6.2-1.9c6,0,8.3,2,8.3,7.6c0,0.5,0,1.2,0,2L328.1,84.2L328.1,84.2z M351.8,75.1v5.4h-4.7v25.7h-6.4V80.4H336v-5.4
	C336,75.1,351.8,75.1,351.8,75.1z M361.1,106.1h-6.4V75.1h6.4V106.1z M379.8,75.1v5.4h-4.7v25.7h-6.4V80.4H364v-5.4
	C364,75.1,379.8,75.1,379.8,75.1z M399,98.5c0,5.8-2.3,8.1-8.3,8.1c-2.3,0-3.9-0.3-5.3-1.1c-2.2-1.2-3-3.1-3-7V75.1h6.4v23.4
	c0,1.8,0.6,2.7,1.9,2.7c1.2,0,1.9-0.9,1.9-2.7V75.1h6.4L399,98.5L399,98.5z M417.4,75.1v5.4h-4.7v25.7h-6.4V80.4h-4.7v-5.4
	C401.5,75.1,417.4,75.1,417.4,75.1z"/>
<path class="st0" d="M100.4,31.4c0,10.7,8.7,19.4,19.4,19.4c10.7,0,19.4-8.7,19.4-19.4c0-10.7-8.7-19.4-19.4-19.4
	C109.1,12,100.4,20.7,100.4,31.4L100.4,31.4z M94.8,31.4c0-13.8,11.2-25,25-25c13.8,0,25,11.2,25,25c0,13.8-11.2,25-25,25
	C106,56.4,94.8,45.2,94.8,31.4L94.8,31.4z"/>
<path class="st0" d="M100.8,75l-5.4,0c0,10.6-8.6,19.1-19.2,19.1S57.1,85.6,57.1,75c0-10.6,8.6-19.1,19.1-19.1l0-5.5
	c-13.6,0-24.6,11-24.6,24.6c0,13.6,11,24.6,24.6,24.6C89.8,99.6,100.8,88.6,100.8,75L100.8,75z"/>
<path class="st0" d="M106.4,75l5.4,0c0,19.6-15.9,35.5-35.6,35.5c-19.6,0-35.5-15.9-35.5-35.5c0-19.6,15.9-35.5,35.5-35.5l0,5.5
	c-16.6,0-30.1,13.5-30.1,30.1c0,16.6,13.5,30.1,30.1,30.1C92.8,105.1,106.4,91.6,106.4,75L106.4,75z"/>
<path class="st0" d="M122.7,75l-5.5,0c0,22.6-18.4,41-41,41c-22.6,0-41-18.4-41-41c0-22.6,18.4-41,41-41l0-5.5
	c-25.7,0-46.6,20.8-46.6,46.5s20.8,46.6,46.6,46.6C101.9,121.6,122.7,100.7,122.7,75L122.7,75z"/>
<path class="st0" d="M133.8,75l-5.5,0c0,28.7-23.3,52.1-52.1,52.1c-28.7,0-52.1-23.3-52.1-52.1c0-28.7,23.3-52.1,52.1-52.1v-5.6
	c-31.8,0-57.6,25.8-57.6,57.6c0,31.8,25.8,57.6,57.6,57.6C108,132.6,133.8,106.8,133.8,75L133.8,75z"/>
<path class="st0" d="M144.8,75l-5.4,0c0,34.9-28.3,63.1-63.2,63.1c-34.9,0-63.1-28.3-63.1-63.1s28.3-63.1,63.1-63.1l0-5.5
	C38.3,6.4,7.6,37.1,7.6,75s30.7,68.6,68.6,68.6C114.1,143.6,144.8,112.9,144.8,75L144.8,75z"/>
</svg>
